<?xml version="1.0" encoding="UTF-8"?>
<!DOCTYPE svg PUBLIC "-//W3C//DTD SVG 1.1//EN" "http://www.w3.org/Graphics/SVG/1.1/DTD/svg11.dtd">
<!-- Creator: CorelDRAW X7 -->
<svg xmlns="http://www.w3.org/2000/svg" xml:space="preserve" width="210mm" height="297mm" version="1.1" style="shape-rendering:geometricPrecision; text-rendering:geometricPrecision; image-rendering:optimizeQuality; fill-rule:evenodd; clip-rule:evenodd"
viewBox="0 0 21000 29700"
 xmlns:xlink="http://www.w3.org/1999/xlink">
 <defs>
  <style type="text/css">
   <![CDATA[
    .fil1 {fill:black}
    .fil0 {fill:#457B9D}
   ]]>
  </style>
 </defs>
 <g id="Camada_x0020_1">
  <metadata id="CorelCorpID_0Corel-Layer"/>
  <path class="fil0" d="M12745 12985c-117,-48 -363,-268 -334,-393 152,-55 188,61 299,159l35 -38c255,-298 368,-660 562,-665 69,175 -514,902 -562,937zm-873 -1143c-46,465 246,1219 541,1447 57,44 316,208 405,210 407,11 1034,-917 948,-1660 -540,51 -916,-315 -932,-384 -3,-12 -12,-14 -18,-20 -204,233 -434,444 -944,407z"/>
  <path class="fil1" d="M10699 8937c937,0 1365,130 2059,693 93,76 124,63 128,224 -269,-6 -198,-204 -823,-518 -853,-428 -1974,-314 -2720,255 -165,126 -323,320 -407,236 -55,-55 18,-123 77,-174 427,-374 1090,-716 1686,-716zm-1976 847c0,151 109,282 247,282 250,0 755,-776 1729,-776 609,0 807,-14 1376,281 123,64 253,150 361,239 79,66 279,256 380,256 274,0 629,-413 -564,-1024 -1013,-520 -2270,-380 -3162,297 -185,141 -367,262 -367,445z"/>
  <path class="fil1" d="M9499 10419c-18,-86 -75,-86 151,-273 591,-489 1494,-573 2176,-219 154,79 559,285 460,492 -106,-29 -179,-118 -271,-187 -553,-418 -1278,-503 -1905,-190 -420,210 -422,361 -611,377zm-211 -71c0,226 267,383 556,97 491,-488 1416,-506 2034,-77 120,84 198,215 322,243 256,58 730,-338 -301,-864 -1272,-648 -2611,217 -2611,601z"/>
  <path class="fil1" d="M10029 10948c29,-353 876,-614 1447,-319 413,213 325,377 181,310 -177,-82 -677,-634 -1437,-44 -138,108 -44,84 -191,53zm35 211c369,0 217,-317 917,-317 362,0 548,317 706,317 310,0 531,-431 -231,-757 -254,-108 -499,-131 -792,-89 -299,44 -446,148 -652,301 -373,276 -55,545 52,545z"/>
  <path class="fil1" d="M10558 11689c0,-357 670,-517 670,35 0,427 -670,367 -670,-35zm-177 -71c0,708 654,681 889,466 339,-309 143,-925 -359,-925 -263,0 -530,208 -530,459z"/>
 </g>
</svg>
